<svg version="1.1" id="Layer_1" xmlns="http://www.w3.org/2000/svg" xmlns:xlink="http://www.w3.org/1999/xlink" x="0px" y="0px"
	 width="100%" viewBox="0 0 198 183" enable-background="new 0 0 198 183" xml:space="preserve">
<path fill="#010001" opacity="1.000000" stroke="none" 
	d="
M139.000000,184.000000 
	C93.862656,184.000000 49.225269,183.974854 4.588096,184.061356 
	C1.858709,184.066650 0.890198,183.829575 0.897906,180.592331 
	C1.037891,121.797958 1.027107,63.003109 0.917687,4.208606 
	C0.912374,1.353525 1.599050,0.924871 4.287382,0.928737 
	C68.078667,1.020492 131.870132,1.017570 195.661469,0.936496 
	C198.243851,0.933214 199.094620,1.192366 199.088638,4.157462 
	C198.969818,63.118488 198.978912,122.079842 199.070389,181.040970 
	C199.074417,183.635727 198.366837,184.071838 195.962540,184.058380 
	C177.142166,183.952972 158.320953,184.000000 139.000000,184.000000 
z"/>
<path fill="#1D4EF0" opacity="1.000000" stroke="none" 
	d="
M63.850868,112.714371 
	C59.079433,115.151062 54.645924,117.430420 50.201019,119.687340 
	C47.573586,121.021423 44.731396,122.354507 42.969212,118.736229 
	C41.394787,115.503487 43.759396,113.865128 46.279751,112.576134 
	C59.886551,105.617157 73.504494,98.679939 87.102966,91.704735 
	C89.784576,90.329224 92.390747,89.892761 93.852989,93.090233 
	C95.170677,95.971596 93.329254,97.723351 90.845932,98.979790 
	C81.948143,103.481674 73.069740,108.021881 63.850868,112.714371 
z"/>
<path fill="#E98C00" opacity="1.000000" stroke="none" 
	d="
M150.785919,79.619904 
	C138.328415,86.023643 126.189575,92.234192 114.064125,98.470757 
	C111.322197,99.881035 108.543159,100.784988 106.858879,97.268486 
	C105.263618,93.937851 107.793350,92.497086 110.286316,91.221756 
	C123.458221,84.483368 136.621048,77.727257 149.795975,70.994827 
	C152.452621,69.637276 155.564194,67.554924 157.556137,71.344002 
	C159.634354,75.297195 156.315659,76.916061 153.343262,78.323799 
	C152.591629,78.679779 151.853653,79.064568 150.785919,79.619904 
z"/>
<path fill="#EB2C4A" opacity="1.000000" stroke="none" 
	d="
M103.735031,87.827293 
	C100.519707,90.140198 98.345078,88.987686 96.928261,86.227425 
	C89.634308,72.017273 82.386086,57.783062 75.243034,43.496681 
	C74.127876,41.266331 74.211273,38.813850 76.947426,37.531673 
	C79.734192,36.225784 81.387993,37.909863 82.530884,40.142632 
	C89.731133,54.209175 96.884308,68.299820 104.043510,82.387344 
	C104.914246,84.100731 105.306152,85.839966 103.735031,87.827293 
z"/>
<path fill="#AB5BD0" opacity="1.000000" stroke="none" 
	d="
M103.876274,122.222748 
	C101.528084,117.585953 99.331680,113.289925 97.129196,108.997009 
	C95.742912,106.294952 94.757957,103.433037 98.182404,101.681664 
	C101.476334,99.997040 102.949875,102.559517 104.219940,105.062218 
	C111.146172,118.710548 118.074333,132.357925 125.022720,145.994980 
	C126.377136,148.653198 126.868134,151.334122 123.690308,152.784378 
	C120.827408,154.090942 119.122620,152.175064 117.862396,149.675522 
	C113.294838,140.616074 108.644562,131.598312 103.876274,122.222748 
z"/>
<path fill="#E88B00" opacity="1.000000" stroke="none" 
	d="
M141.060562,106.035034 
	C146.021957,108.429459 150.625259,110.698936 155.251740,112.920204 
	C157.816666,114.151680 159.407730,115.946022 157.996231,118.814301 
	C156.553467,121.746040 154.146896,121.337875 151.638840,120.116653 
	C142.113800,115.478714 132.579697,110.858932 123.021957,106.288887 
	C120.437737,105.053238 118.781403,103.234093 120.113205,100.425041 
	C121.417007,97.675034 123.744156,97.576225 126.413078,98.951927 
	C131.120728,101.378487 135.939758,103.588982 141.060562,106.035034 
z"/>
<path fill="#A95ACF" opacity="1.000000" stroke="none" 
	d="
M82.571304,150.510834 
	C80.933563,153.353058 78.921448,154.540619 76.268326,152.730377 
	C73.824051,151.062637 74.467766,148.633408 75.496017,146.467300 
	C80.044296,136.885895 84.669991,127.341194 89.284569,117.791374 
	C90.495010,115.286377 92.290489,113.556625 95.187912,115.034683 
	C98.100418,116.520432 97.614479,119.061028 96.462273,121.488792 
	C91.915497,131.069016 87.328873,140.630341 82.571304,150.510834 
z"/>
<path fill="#1D4EEF" opacity="1.000000" stroke="none" 
	d="
M50.805466,80.071823 
	C48.382076,78.878311 46.217239,77.968750 44.244080,76.749084 
	C42.352375,75.579765 41.507492,73.727043 42.614990,71.592285 
	C43.784641,69.337715 45.711514,68.662445 48.064571,69.786606 
	C58.126877,74.593864 68.193314,79.393173 78.217995,84.277962 
	C80.571243,85.424629 81.873795,87.382095 80.534103,90.005043 
	C79.196999,92.622932 76.876732,92.656151 74.519112,91.528618 
	C66.711685,87.794678 58.935799,83.994781 50.805466,80.071823 
z"/>
<path fill="#EA2C4A" opacity="1.000000" stroke="none" 
	d="
M109.003799,58.850452 
	C112.095619,52.381275 115.062981,46.267338 117.995262,40.136623 
	C119.216805,37.582661 121.040237,35.886002 123.877586,37.303520 
	C126.721992,38.724556 126.373184,41.235302 125.172173,43.738937 
	C120.584541,53.302380 116.034187,62.883736 111.432777,72.440529 
	C110.273071,74.849159 108.627571,76.915329 105.642288,75.436264 
	C102.871269,74.063347 102.837814,71.601929 104.077911,69.039131 
	C105.666718,65.755692 107.268806,62.478691 109.003799,58.850452 
z"/>
<path fill="#E88B00" opacity="1.000000" stroke="none" 
	d="
M158.372284,96.431221 
	C157.242416,99.471214 155.270966,100.612717 152.444138,100.185852 
	C150.229660,99.851448 148.932968,98.387619 148.397522,96.327080 
	C147.846130,94.205101 148.608170,92.399780 150.301605,91.066277 
	C153.902954,88.230385 157.690567,90.572258 158.372284,96.431221 
z"/>
<path fill="#1D4EEF" opacity="1.000000" stroke="none" 
	d="
M50.558090,91.182556 
	C53.127983,94.628143 53.130333,97.661034 49.505028,99.752907 
	C47.325581,101.010506 44.964561,100.509079 43.304111,98.440430 
	C41.821259,96.593040 41.594223,94.448563 42.981712,92.486450 
	C44.866825,89.820625 47.342899,89.145027 50.558090,91.182556 
z"/>
<path fill="#EA2C4A" opacity="1.000000" stroke="none" 
	d="
M97.159393,37.925751 
	C102.433708,36.286953 105.701347,38.095291 105.430252,42.178219 
	C105.276398,44.495472 104.104958,46.259571 101.758377,46.903366 
	C99.687378,47.471550 97.794884,46.987148 96.434044,45.260033 
	C94.508972,42.816792 94.726944,40.419231 97.159393,37.925751 
z"/>
<path fill="#A558C9" opacity="1.000000" stroke="none" 
	d="
M98.645866,153.224762 
	C95.482162,151.714355 94.471672,149.435440 95.547043,146.542252 
	C96.446205,144.123154 98.460678,142.862518 101.057968,143.255768 
	C103.367325,143.605438 104.938332,145.054199 105.393219,147.462936 
	C106.076706,151.082260 103.727524,153.231064 98.645866,153.224762 
z"/>
</svg>