<svg id="visual" viewBox="0 0 900 600" width="900" height="600" xmlns="http://www.w3.org/2000/svg" xmlns:xlink="http://www.w3.org/1999/xlink" version="1.1"><g stroke-width="1" stroke-linejoin="bevel"><path d="M416 260L471 213L406 208Z" fill="#4549bd" stroke="#4549bd"></path><path d="M406 208L331 260L416 260Z" fill="#11101d" stroke="#11101d"></path><path d="M471 213L488 130L406 208Z" fill="#282d68" stroke="#282d68"></path><path d="M406 208L373 120L331 260Z" fill="#282d68" stroke="#282d68"></path><path d="M399 366L519 320L416 260Z" fill="#11101d" stroke="#11101d"></path><path d="M416 260L519 320L471 213Z" fill="#2e347d" stroke="#2e347d"></path><path d="M471 213L562 203L488 130Z" fill="#222654" stroke="#222654"></path><path d="M488 130L373 120L406 208Z" fill="#17182f" stroke="#17182f"></path><path d="M519 320L562 203L471 213Z" fill="#11101d" stroke="#11101d"></path><path d="M331 260L399 366L416 260Z" fill="#282d68" stroke="#282d68"></path><path d="M519 320L592 281L562 203Z" fill="#353b92" stroke="#353b92"></path><path d="M373 120L266 219L331 260Z" fill="#222654" stroke="#222654"></path><path d="M331 260L266 418L399 366Z" fill="#4549bd" stroke="#4549bd"></path><path d="M399 366L472 425L519 320Z" fill="#11101d" stroke="#11101d"></path><path d="M519 320L571 425L592 281Z" fill="#222654" stroke="#222654"></path><path d="M335 0L273 91L373 120Z" fill="#2e347d" stroke="#2e347d"></path><path d="M373 120L273 91L266 219Z" fill="#3c42a7" stroke="#3c42a7"></path><path d="M472 425L571 425L519 320Z" fill="#222654" stroke="#222654"></path><path d="M488 130L370 0L373 120Z" fill="#353b92" stroke="#353b92"></path><path d="M516 0L370 0L488 130Z" fill="#5956e9" stroke="#5956e9"></path><path d="M691 211L631 85L562 203Z" fill="#1c1f41" stroke="#1c1f41"></path><path d="M562 203L631 85L488 130Z" fill="#353b92" stroke="#353b92"></path><path d="M691 211L562 203L592 281Z" fill="#2e347d" stroke="#2e347d"></path><path d="M631 85L516 0L488 130Z" fill="#17182f" stroke="#17182f"></path><path d="M387 509L493 473L472 425Z" fill="#11101d" stroke="#11101d"></path><path d="M472 425L493 473L571 425Z" fill="#1c1f41" stroke="#1c1f41"></path><path d="M387 509L472 425L399 366Z" fill="#222654" stroke="#222654"></path><path d="M370 0L335 0L373 120Z" fill="#17182f" stroke="#17182f"></path><path d="M702 300L691 211L592 281Z" fill="#5956e9" stroke="#5956e9"></path><path d="M171 284L266 418L331 260Z" fill="#3c42a7" stroke="#3c42a7"></path><path d="M273 91L176 180L266 219Z" fill="#3c42a7" stroke="#3c42a7"></path><path d="M266 219L171 284L331 260Z" fill="#2e347d" stroke="#2e347d"></path><path d="M223 69L176 180L273 91Z" fill="#5956e9" stroke="#5956e9"></path><path d="M335 0L223 69L273 91Z" fill="#3c42a7" stroke="#3c42a7"></path><path d="M631 85L583 0L516 0Z" fill="#2e347d" stroke="#2e347d"></path><path d="M176 180L171 284L266 219Z" fill="#222654" stroke="#222654"></path><path d="M724 362L702 300L592 281Z" fill="#11101d" stroke="#11101d"></path><path d="M323 514L387 509L399 366Z" fill="#2e347d" stroke="#2e347d"></path><path d="M239 482L323 514L266 418Z" fill="#2e347d" stroke="#2e347d"></path><path d="M266 418L323 514L399 366Z" fill="#5956e9" stroke="#5956e9"></path><path d="M691 211L697 65L631 85Z" fill="#11101d" stroke="#11101d"></path><path d="M631 85L675 0L583 0Z" fill="#222654" stroke="#222654"></path><path d="M769 172L697 65L691 211Z" fill="#17182f" stroke="#17182f"></path><path d="M493 473L582 509L571 425Z" fill="#282d68" stroke="#282d68"></path><path d="M571 425L724 362L592 281Z" fill="#5956e9" stroke="#5956e9"></path><path d="M490 600L582 509L493 473Z" fill="#3c42a7" stroke="#3c42a7"></path><path d="M490 600L493 473L387 509Z" fill="#1c1f41" stroke="#1c1f41"></path><path d="M682 515L724 362L571 425Z" fill="#1c1f41" stroke="#1c1f41"></path><path d="M808 260L769 172L691 211Z" fill="#5956e9" stroke="#5956e9"></path><path d="M171 284L181 423L266 418Z" fill="#2e347d" stroke="#2e347d"></path><path d="M181 423L239 482L266 418Z" fill="#4549bd" stroke="#4549bd"></path><path d="M697 65L675 0L631 85Z" fill="#4f4fd3" stroke="#4f4fd3"></path><path d="M335 0L195 0L223 69Z" fill="#3c42a7" stroke="#3c42a7"></path><path d="M223 69L115 60L176 180Z" fill="#222654" stroke="#222654"></path><path d="M808 260L691 211L702 300Z" fill="#4f4fd3" stroke="#4f4fd3"></path><path d="M697 65L801 0L675 0Z" fill="#282d68" stroke="#282d68"></path><path d="M171 284L111 320L181 423Z" fill="#1c1f41" stroke="#1c1f41"></path><path d="M91 237L111 320L171 284Z" fill="#282d68" stroke="#282d68"></path><path d="M91 237L171 284L176 180Z" fill="#4f4fd3" stroke="#4f4fd3"></path><path d="M115 60L91 237L176 180Z" fill="#4549bd" stroke="#4549bd"></path><path d="M900 202L782 122L769 172Z" fill="#4f4fd3" stroke="#4f4fd3"></path><path d="M769 172L782 122L697 65Z" fill="#5956e9" stroke="#5956e9"></path><path d="M195 0L115 60L223 69Z" fill="#3c42a7" stroke="#3c42a7"></path><path d="M724 362L808 260L702 300Z" fill="#222654" stroke="#222654"></path><path d="M368 600L387 509L323 514Z" fill="#353b92" stroke="#353b92"></path><path d="M368 600L490 600L387 509Z" fill="#4f4fd3" stroke="#4f4fd3"></path><path d="M582 509L682 515L571 425Z" fill="#282d68" stroke="#282d68"></path><path d="M724 362L818 370L808 260Z" fill="#4549bd" stroke="#4549bd"></path><path d="M592 600L682 515L582 509Z" fill="#4549bd" stroke="#4549bd"></path><path d="M321 600L368 600L323 514Z" fill="#17182f" stroke="#17182f"></path><path d="M238 600L323 514L239 482Z" fill="#5956e9" stroke="#5956e9"></path><path d="M238 600L321 600L323 514Z" fill="#17182f" stroke="#17182f"></path><path d="M111 320L71 369L181 423Z" fill="#11101d" stroke="#11101d"></path><path d="M181 423L134 505L239 482Z" fill="#353b92" stroke="#353b92"></path><path d="M0 331L71 369L111 320Z" fill="#1c1f41" stroke="#1c1f41"></path><path d="M0 331L111 320L91 237Z" fill="#282d68" stroke="#282d68"></path><path d="M490 600L592 600L582 509Z" fill="#17182f" stroke="#17182f"></path><path d="M833 511L818 370L724 362Z" fill="#282d68" stroke="#282d68"></path><path d="M71 369L134 505L181 423Z" fill="#222654" stroke="#222654"></path><path d="M134 505L238 600L239 482Z" fill="#11101d" stroke="#11101d"></path><path d="M900 77L801 0L782 122Z" fill="#17182f" stroke="#17182f"></path><path d="M782 122L801 0L697 65Z" fill="#353b92" stroke="#353b92"></path><path d="M900 202L769 172L808 260Z" fill="#4f4fd3" stroke="#4f4fd3"></path><path d="M195 0L62 0L115 60Z" fill="#17182f" stroke="#17182f"></path><path d="M115 60L0 160L91 237Z" fill="#17182f" stroke="#17182f"></path><path d="M0 116L0 160L115 60Z" fill="#17182f" stroke="#17182f"></path><path d="M0 160L0 331L91 237Z" fill="#1c1f41" stroke="#1c1f41"></path><path d="M71 369L0 523L134 505Z" fill="#4f4fd3" stroke="#4f4fd3"></path><path d="M62 0L0 116L115 60Z" fill="#4549bd" stroke="#4549bd"></path><path d="M0 331L0 371L71 369Z" fill="#2e347d" stroke="#2e347d"></path><path d="M900 323L900 202L808 260Z" fill="#17182f" stroke="#17182f"></path><path d="M818 370L900 323L808 260Z" fill="#1c1f41" stroke="#1c1f41"></path><path d="M900 409L900 323L818 370Z" fill="#4f4fd3" stroke="#4f4fd3"></path><path d="M833 511L724 362L682 515Z" fill="#11101d" stroke="#11101d"></path><path d="M592 600L739 600L682 515Z" fill="#4f4fd3" stroke="#4f4fd3"></path><path d="M739 600L833 511L682 515Z" fill="#11101d" stroke="#11101d"></path><path d="M900 202L900 77L782 122Z" fill="#353b92" stroke="#353b92"></path><path d="M62 0L0 0L0 116Z" fill="#4549bd" stroke="#4549bd"></path><path d="M833 511L900 409L818 370Z" fill="#282d68" stroke="#282d68"></path><path d="M0 523L84 600L134 505Z" fill="#4f4fd3" stroke="#4f4fd3"></path><path d="M134 505L84 600L238 600Z" fill="#11101d" stroke="#11101d"></path><path d="M739 600L794 600L833 511Z" fill="#282d68" stroke="#282d68"></path><path d="M833 511L900 525L900 409Z" fill="#4549bd" stroke="#4549bd"></path><path d="M900 77L900 0L801 0Z" fill="#222654" stroke="#222654"></path><path d="M0 371L0 523L71 369Z" fill="#17182f" stroke="#17182f"></path><path d="M900 600L900 525L833 511Z" fill="#3c42a7" stroke="#3c42a7"></path><path d="M0 523L0 600L84 600Z" fill="#2e347d" stroke="#2e347d"></path><path d="M794 600L900 600L833 511Z" fill="#2e347d" stroke="#2e347d"></path></g></svg>