<svg id="Capa_1" data-name="Capa 1" xmlns="http://www.w3.org/2000/svg" viewBox="0 0 390.94 97.28"><defs><style>.cls-1{fill:#fff;}.cls-2{fill:#f52e4d;}.cls-3{fill:#b15ed8;}.cls-4,.cls-6{fill:#1e51f9;}.cls-5{fill:#f29100;}.cls-6{font-size:87.64px;font-family:AbsolutProCond-Bold, Absolut Pro Condensed reduced;font-weight:700;letter-spacing:0.11em;}.cls-7{letter-spacing:0.1em;}.cls-8{letter-spacing:0.11em;}.cls-9{letter-spacing:0.1em;}.cls-10{letter-spacing:0.11em;}</style></defs><rect class="cls-1" x="7.06" y="0.64" width="101.94" height="90"/><rect class="cls-1" x="7.06" y="0.64" width="101.94" height="90"/><rect class="cls-1" y="12.64" width="109" height="68"/><path class="cls-2" d="M60.85,43.11a1.94,1.94,0,0,0-.14-1.75L46.42,16.61a2.5,2.5,0,0,0-1.53-1.14,2.79,2.79,0,0,0-2,.14A2.22,2.22,0,0,0,41.62,17a2,2,0,0,0,.18,1.74L56.09,43.44a2.38,2.38,0,0,0,1.49,1.14,2.77,2.77,0,0,0,2-.15,2.39,2.39,0,0,0,1.31-1.32Z" transform="translate(0 -3.36)"/><path class="cls-2" d="M63.24,37.11A2.38,2.38,0,0,0,64.73,36l9.53-17.45a2,2,0,0,0,.18-1.75,2.25,2.25,0,0,0-1.28-1.34,2.84,2.84,0,0,0-2-.14,2.52,2.52,0,0,0-1.53,1.15L60.12,33.9A1.92,1.92,0,0,0,60,35.64,2.42,2.42,0,0,0,61.28,37,2.77,2.77,0,0,0,63.24,37.11Z" transform="translate(0 -3.36)"/><path class="cls-2" d="M61.37,18.12a2.22,2.22,0,0,1-.07.57,2.31,2.31,0,0,1-.19.56,3,3,0,0,1-.3.51,3.48,3.48,0,0,1-.42.44,2.78,2.78,0,0,1-.51.37,3.72,3.72,0,0,1-.57.27,4.16,4.16,0,0,1-.63.17,4.25,4.25,0,0,1-1.3,0,4.5,4.5,0,0,1-.63-.17,3.72,3.72,0,0,1-.57-.27,3.17,3.17,0,0,1-.51-.37,3.39,3.39,0,0,1-.41-.44,2.49,2.49,0,0,1-.31-.51,2.31,2.31,0,0,1-.19-.56,2.22,2.22,0,0,1-.07-.57,2.3,2.3,0,0,1,.07-.58,2.77,2.77,0,0,1,.5-1.06,2.85,2.85,0,0,1,.41-.44,3.17,3.17,0,0,1,.51-.37,3,3,0,0,1,.57-.27,3.45,3.45,0,0,1,.63-.17,3.55,3.55,0,0,1,1.3,0,3.25,3.25,0,0,1,.63.17,3,3,0,0,1,.57.27,2.78,2.78,0,0,1,.51.37,2.92,2.92,0,0,1,.42.44,2.62,2.62,0,0,1,.3.51,2.24,2.24,0,0,1,.19.55A2.3,2.3,0,0,1,61.37,18.12Z" transform="translate(0 -3.36)"/><path class="cls-3" d="M55.21,52.94a2,2,0,0,0,.14,1.75L69.64,79.44a2.5,2.5,0,0,0,1.53,1.14,2.79,2.79,0,0,0,2-.14,2.2,2.2,0,0,0,1.28-1.34,2,2,0,0,0-.18-1.74L60,52.61a2.38,2.38,0,0,0-1.49-1.14,2.77,2.77,0,0,0-2,.15,2.39,2.39,0,0,0-1.31,1.32Z" transform="translate(0 -3.36)"/><path class="cls-3" d="M52.82,58.94a2.38,2.38,0,0,0-1.49,1.14L41.8,77.53a2,2,0,0,0-.18,1.75,2.28,2.28,0,0,0,1.28,1.34,2.84,2.84,0,0,0,2,.14,2.52,2.52,0,0,0,1.53-1.15l9.52-17.46a1.92,1.92,0,0,0,.15-1.74,2.42,2.42,0,0,0-1.31-1.32A2.77,2.77,0,0,0,52.82,58.94Z" transform="translate(0 -3.36)"/><path class="cls-3" d="M61.37,77.93a2.3,2.3,0,0,1-.07.58,2.24,2.24,0,0,1-.19.55,2.62,2.62,0,0,1-.3.51,2.92,2.92,0,0,1-.42.44,2.78,2.78,0,0,1-.51.37,3,3,0,0,1-.57.27,3.25,3.25,0,0,1-.63.17,3.55,3.55,0,0,1-1.3,0,3.45,3.45,0,0,1-.63-.17,3,3,0,0,1-.57-.27,3.17,3.17,0,0,1-.51-.37,2.85,2.85,0,0,1-.41-.44,2.77,2.77,0,0,1-.5-1.06,2.3,2.3,0,0,1-.07-.58,2.22,2.22,0,0,1,.07-.57A2.31,2.31,0,0,1,55,76.8a2.49,2.49,0,0,1,.31-.51,3.39,3.39,0,0,1,.41-.44,3.17,3.17,0,0,1,.51-.37,3.72,3.72,0,0,1,.57-.27,4.5,4.5,0,0,1,.63-.17,4.25,4.25,0,0,1,1.3,0,4.16,4.16,0,0,1,.63.17,3.72,3.72,0,0,1,.57.27,2.78,2.78,0,0,1,.51.37,3.48,3.48,0,0,1,.42.44,3,3,0,0,1,.3.51,2.31,2.31,0,0,1,.19.56A2.22,2.22,0,0,1,61.37,77.93Z" transform="translate(0 -3.36)"/><path class="cls-4" d="M52.46,45.54a2.71,2.71,0,0,0-2,.12l-28,12.61a2.34,2.34,0,0,0-1.29,1.35,2,2,0,0,0,.15,1.76,2.42,2.42,0,0,0,1.52,1.13,2.94,2.94,0,0,0,2-.16L52.84,49.74a2.33,2.33,0,0,0,1.29-1.31A2,2,0,0,0,54,46.7a2.49,2.49,0,0,0-1.5-1.16Z" transform="translate(0 -3.36)"/><path class="cls-4" d="M45.66,43.42a2.28,2.28,0,0,0-1.28-1.31L24.6,33.7a3,3,0,0,0-2-.16,2.38,2.38,0,0,0-1.51,1.13,2,2,0,0,0-.16,1.76,2.33,2.33,0,0,0,1.3,1.35L42,46.19a2.76,2.76,0,0,0,2,.12,2.51,2.51,0,0,0,1.5-1.15A2,2,0,0,0,45.66,43.42Z" transform="translate(0 -3.36)"/><path class="cls-4" d="M27.48,48a2.76,2.76,0,0,1-.57,1.63,3.47,3.47,0,0,1-.41.45,3.11,3.11,0,0,1-.51.36,3.77,3.77,0,0,1-.57.28,3.42,3.42,0,0,1-.63.16,3.55,3.55,0,0,1-1.3,0,3.42,3.42,0,0,1-.63-.16,3.77,3.77,0,0,1-.57-.28,3.11,3.11,0,0,1-.51-.36,2.88,2.88,0,0,1-.41-.45,2.67,2.67,0,0,1,0-3.27,2.88,2.88,0,0,1,.41-.45,3.11,3.11,0,0,1,.51-.36,3.77,3.77,0,0,1,.57-.28,3.42,3.42,0,0,1,.63-.16,3.55,3.55,0,0,1,1.3,0,3.42,3.42,0,0,1,.63.16,3.77,3.77,0,0,1,.57.28,3.11,3.11,0,0,1,.51.36,3.47,3.47,0,0,1,.41.45A2.75,2.75,0,0,1,27.48,48Z" transform="translate(0 -3.36)"/><path class="cls-5" d="M63.61,50.52a2.74,2.74,0,0,0,2-.13L93.63,37.78a2.34,2.34,0,0,0,1.3-1.34,2,2,0,0,0-.16-1.77,2.36,2.36,0,0,0-1.52-1.12,2.94,2.94,0,0,0-2,.15l-28,12.61a2.26,2.26,0,0,0-1.29,1.32,1.94,1.94,0,0,0,.17,1.73,2.46,2.46,0,0,0,1.49,1.15Z" transform="translate(0 -3.36)"/><path class="cls-5" d="M70.4,52.63a2.33,2.33,0,0,0,1.29,1.31l19.78,8.41a2.94,2.94,0,0,0,2,.16A2.42,2.42,0,0,0,95,61.38a2,2,0,0,0,.15-1.76,2.33,2.33,0,0,0-1.3-1.35L74,49.86a2.76,2.76,0,0,0-2-.12,2.49,2.49,0,0,0-1.49,1.15A2,2,0,0,0,70.4,52.63Z" transform="translate(0 -3.36)"/><path class="cls-5" d="M95.26,48A2.75,2.75,0,0,1,95,49.15a2.62,2.62,0,0,1-.3.51,3.56,3.56,0,0,1-.42.45,3,3,0,0,1-.5.36,4.41,4.41,0,0,1-.58.28,3.23,3.23,0,0,1-.63.16,3.49,3.49,0,0,1-.65.06,3.57,3.57,0,0,1-.65-.06,3.64,3.64,0,0,1-.63-.16,3.77,3.77,0,0,1-.57-.28,3.11,3.11,0,0,1-.51-.36,3.47,3.47,0,0,1-.41-.45,2.67,2.67,0,0,1,0-3.27,3.47,3.47,0,0,1,.41-.45,3.11,3.11,0,0,1,.51-.36,3.77,3.77,0,0,1,.57-.28,3.64,3.64,0,0,1,.63-.16,3.57,3.57,0,0,1,.65-.06,3.49,3.49,0,0,1,.65.06,3.23,3.23,0,0,1,.63.16,4.41,4.41,0,0,1,.58.28,3,3,0,0,1,.5.36,3.56,3.56,0,0,1,.42.45,2.62,2.62,0,0,1,.3.51A2.75,2.75,0,0,1,95.26,48Z" transform="translate(0 -3.36)"/><text class="cls-6" transform="translate(116.83 77.12) scale(0.88 1)">T<tspan class="cls-7" x="45.75" y="0">E</tspan><tspan class="cls-8" x="92.9" y="0">M</tspan><tspan class="cls-9" x="158.89" y="0">P</tspan><tspan class="cls-10" x="208.15" y="0">US</tspan></text></svg>